<svg xmlns="http://www.w3.org/2000/svg" viewBox="0 0 1920 1080">
  <defs>
    <linearGradient id="bg" x1="0%" y1="0%" x2="100%" y2="100%">
      <stop offset="0%" style="stop-color:#0f172a"/>
      <stop offset="30%" style="stop-color:#1e293b"/>
      <stop offset="70%" style="stop-color:#334155"/>
      <stop offset="100%" style="stop-color:#0f172a"/>
    </linearGradient>
    
    <radialGradient id="fluid1" cx="30%" cy="40%">
      <stop offset="0%" style="stop-color:#3b82f6;stop-opacity:0.9"/>
      <stop offset="40%" style="stop-color:#1d4ed8;stop-opacity:0.7"/>
      <stop offset="100%" style="stop-color:#1e40af;stop-opacity:0.5"/>
    </radialGradient>
    
    <radialGradient id="fluid2" cx="70%" cy="60%">
      <stop offset="0%" style="stop-color:#06b6d4;stop-opacity:0.8"/>
      <stop offset="50%" style="stop-color:#0891b2;stop-opacity:0.6"/>
      <stop offset="100%" style="stop-color:#0e7490;stop-opacity:0.4"/>
    </radialGradient>
    
    <filter id="blur">
      <feGaussianBlur stdDeviation="40"/>
    </filter>
  </defs>
  
  <rect width="100%" height="100%" fill="url(#bg)"/>
  
  <!-- Fluid Shapes -->
  <path d="M-200,400 Q200,200 600,350 T1200,400 Q1600,450 2000,300 L2000,800 Q1600,950 1200,800 T400,750 Q0,700 -200,850 Z" 
        fill="url(#fluid1)" 
        filter="url(#blur)"
        opacity="0.7">
    <animateTransform attributeName="transform" 
                      type="translate" 
                      values="0,0; 50,-20; 0,0" 
                      dur="20s" 
                      repeatCount="indefinite"/>
  </path>
  
  <path d="M200,600 Q600,400 1000,550 T1800,600 Q2200,650 2400,500 L2400,1000 Q2000,1150 1600,1000 T800,950 Q400,900 200,1050 Z" 
        fill="url(#fluid2)" 
        filter="url(#blur)"
        opacity="0.6">
    <animateTransform attributeName="transform" 
                      type="translate" 
                      values="0,0; -30,30; 0,0" 
                      dur="25s" 
                      repeatCount="indefinite"/>
  </path>
  
  <path d="M-100,200 Q300,0 700,150 T1400,200 Q1800,250 2100,100 L2100,600 Q1700,750 1300,600 T500,550 Q100,500 -100,650 Z" 
        fill="url(#fluid1)" 
        filter="url(#blur)"
        opacity="0.5">
    <animateTransform attributeName="transform" 
                      type="translate" 
                      values="0,0; 40,15; 0,0" 
                      dur="30s" 
                      repeatCount="indefinite"/>
  </path>
</svg>
